<svg width="22" height="26" viewBox="0 0 22 26" fill="none" xmlns="http://www.w3.org/2000/svg">
<path d="M19.7004 8.62587L8.95823 1.04673C8.1192 0.45557 7.12643 0.0995081 6.08996 0.0180063C5.05349 -0.0634954 4.0138 0.132747 3.08615 0.58498C2.1585 1.03721 1.37911 1.72777 0.834383 2.58012C0.289653 3.43246 0.000857248 4.41329 6.79568e-06 5.41389V20.5798C-0.00161106 21.5813 0.285675 22.5637 0.829886 23.4175C1.3741 24.2713 2.15388 24.963 3.08244 25.4157C4.011 25.8684 5.05191 26.0643 6.08929 25.9815C7.12667 25.8987 8.11984 25.5406 8.95823 24.9469L19.7004 17.3678C20.4132 16.8645 20.9928 16.2068 21.3923 15.4479C21.7918 14.689 22 13.8502 22 12.9995C22 12.1488 21.7918 11.3101 21.3923 10.5512C20.9928 9.79232 20.4132 9.1346 19.7004 8.63129V8.62587Z" fill="#1E4737"/>
</svg>
