<svg style="width:0; height:0; visibility: hidden;" xmlns="http://www.w3.org/2000/svg">
	<symbol id="svg-arrow-l" viewBox="0 0 22 16">
		<g>
		<path d="M21 9C21.5523 9 22 8.55228 22 8C22 7.44772 21.5523 7 21 7L21 9ZM0.292892 7.2929C-0.0976315 7.68342 -0.0976314 8.31658 0.292893 8.70711L6.65686 15.0711C7.04738 15.4616 7.68054 15.4616 8.07107 15.0711C8.46159 14.6805 8.46159 14.0474 8.07107 13.6569L2.41421 8L8.07107 2.34315C8.46159 1.95262 8.46159 1.31946 8.07107 0.928933C7.68054 0.538409 7.04738 0.538409 6.65685 0.928933L0.292892 7.2929ZM21 7L1 7L1 9L21 9L21 7Z" fill="currentColor"/>
		</g>
	</symbol>
	<symbol id="svg-arrow-r" viewBox="0 0 22 16">
		<g>
		<path d="M1 7C0.447715 7 0 7.44772 0 8C0 8.55228 0.447715 9 1 9V7ZM21.7071 8.70711C22.0976 8.31658 22.0976 7.68342 21.7071 7.29289L15.3431 0.928932C14.9526 0.538408 14.3195 0.538408 13.9289 0.928932C13.5384 1.31946 13.5384 1.95262 13.9289 2.34315L19.5858 8L13.9289 13.6569C13.5384 14.0474 13.5384 14.6805 13.9289 15.0711C14.3195 15.4616 14.9526 15.4616 15.3431 15.0711L21.7071 8.70711ZM1 9H21V7H1V9Z" fill="currentColor"/>
		</g>
	</symbol>
	<!-- <symbol id="svg-arrow-l">
		<g>
		</g>
	</symbol>
	<symbol id="svg-arrow-l">
		<g>
		</g>
	</symbol>
	<symbol id="svg-arrow-l">
		<g>
		</g>
	</symbol> -->
</svg>