<svg width="24" height="34" viewBox="0 0 24 34" fill="none" xmlns="http://www.w3.org/2000/svg">
<path d="M17.3333 0.425C18.2744 0.767802 19.1307 1.33142 19.8387 2.074L22.0467 4.42283C22.7464 5.17408 23.2774 6.08354 23.6 7.08333H17.3333V0.425ZM24 9.91667V26.9167C23.9979 28.7946 23.2948 30.595 22.045 31.9229C20.7953 33.2508 19.1008 33.9977 17.3333 34H6.66667C4.89921 33.9977 3.20474 33.2508 1.95496 31.9229C0.705176 30.595 0.00211714 28.7946 0 26.9167V7.08333C0.00211714 5.20541 0.705176 3.40504 1.95496 2.07714C3.20474 0.749249 4.89921 0.00224946 6.66667 0L14.6667 0V7.08333C14.6667 7.83478 14.9476 8.55545 15.4477 9.0868C15.9478 9.61816 16.6261 9.91667 17.3333 9.91667H24ZM18.4107 24.6684C18.3078 24.5172 18.1778 24.389 18.0282 24.2913C17.8786 24.1936 17.7123 24.1283 17.5388 24.0991C17.3654 24.0698 17.1882 24.0773 17.0175 24.121C16.8468 24.1648 16.6859 24.2439 16.544 24.3539C15.6482 25.0165 14.6017 25.4122 13.5133 25.5C13.0869 25.4876 12.6785 25.3144 12.3613 25.0112C11.6655 24.4246 10.8068 24.0984 9.91867 24.0833C8.43956 24.2311 7.03074 24.8237 5.85733 25.7918C5.71171 25.9021 5.58845 26.0424 5.4949 26.2044C5.40136 26.3663 5.33943 26.5466 5.31281 26.7345C5.2862 26.9225 5.29543 27.1141 5.33996 27.2982C5.3845 27.4822 5.46342 27.6548 5.57204 27.8058C5.68066 27.9568 5.81675 28.083 5.97222 28.1769C6.12768 28.2708 6.29934 28.3306 6.47699 28.3525C6.65463 28.3745 6.83462 28.3583 7.00624 28.3049C7.17787 28.2515 7.33763 28.1619 7.476 28.0415C8.18616 27.4505 9.02724 27.0632 9.91867 26.9167C10.2467 26.9167 10.4133 27.0272 10.852 27.3417C11.6118 27.9793 12.5505 28.3284 13.5187 28.3333C15.1757 28.2529 16.7757 27.666 18.1267 26.6432C18.41 26.4207 18.5988 26.0881 18.6521 25.7181C18.7053 25.348 18.6185 24.9707 18.4107 24.6684ZM18.6667 19.8333C18.6667 19.4576 18.5262 19.0973 18.2761 18.8316C18.0261 18.5659 17.687 18.4167 17.3333 18.4167H6.66667C6.31305 18.4167 5.97391 18.5659 5.72386 18.8316C5.47381 19.0973 5.33333 19.4576 5.33333 19.8333C5.33333 20.2091 5.47381 20.5694 5.72386 20.8351C5.97391 21.1007 6.31305 21.25 6.66667 21.25H17.3333C17.687 21.25 18.0261 21.1007 18.2761 20.8351C18.5262 20.5694 18.6667 20.2091 18.6667 19.8333ZM18.6667 14.1667C18.6667 13.7909 18.5262 13.4306 18.2761 13.1649C18.0261 12.8993 17.687 12.75 17.3333 12.75H6.66667C6.31305 12.75 5.97391 12.8993 5.72386 13.1649C5.47381 13.4306 5.33333 13.7909 5.33333 14.1667C5.33333 14.5424 5.47381 14.9027 5.72386 15.1684C5.97391 15.4341 6.31305 15.5833 6.66667 15.5833H17.3333C17.687 15.5833 18.0261 15.4341 18.2761 15.1684C18.5262 14.9027 18.6667 14.5424 18.6667 14.1667Z" fill="#1E4737"/>
</svg>
