<svg width="30" height="30" viewBox="0 0 30 30" fill="none" xmlns="http://www.w3.org/2000/svg">
<path d="M14.9423 19.9951C17.713 19.9951 19.9663 17.7514 19.9663 14.9926C19.9663 12.2337 17.713 9.9901 14.9423 9.9901C12.1715 9.9901 9.91827 12.2337 9.91827 14.9926C9.91827 17.7514 12.1715 19.9951 14.9423 19.9951ZM14.9423 21.2457C10.7862 21.2457 7.40627 24.6111 7.40627 28.7494C7.40627 29.441 7.96896 30 8.66227 30H21.2223C21.9156 30 22.4783 29.441 22.4783 28.7494C22.4783 24.6111 19.0984 21.2457 14.9423 21.2457ZM7.15632 11.8898C7.42762 12.6264 6.49943 13.313 5.86892 12.844L4.22481 11.7034L2.58573 12.844C1.96024 13.3117 1.03834 12.6364 1.3021 11.9023L1.88614 10.0814L0.35507 9.01962C-0.319403 8.58315 0.0360455 7.44259 0.842399 7.46885H2.84572L3.3117 5.69172C3.52271 4.76877 4.93697 4.77002 5.14797 5.69172L5.61395 7.46885H7.60471C8.40856 7.44259 8.76275 8.57565 8.09079 9.01212L6.55721 10.0789L7.15507 11.8885L7.15632 11.8898ZM29.6476 9.01337L28.114 10.0801L28.7118 11.8898C28.9831 12.6264 28.0549 13.313 27.4244 12.844L25.7803 11.7034L24.1412 12.844C23.5157 13.3117 22.5951 12.6352 22.8576 11.9023L23.4416 10.0814L21.9106 9.01962C21.2361 8.58315 21.5916 7.44259 22.3979 7.46885H24.4012L24.8672 5.69172C25.0782 4.76877 26.4925 4.77002 26.7035 5.69172L27.1695 7.46885H29.1602C29.9641 7.44259 30.3183 8.57565 29.6463 9.01212L29.6476 9.01337ZM10.7322 3.13046C10.8163 2.74526 11.1592 2.46763 11.5561 2.46888H13.5594L14.0254 0.691749C14.2364 -0.231208 15.6507 -0.229957 15.8617 0.691749L16.3277 2.46888H18.3184C19.1223 2.44261 19.4764 3.57568 18.8045 4.01214L17.2709 5.07892L17.8688 6.88856C18.1401 7.62518 17.2106 8.31177 16.5814 7.84279L14.9373 6.70222L13.2982 7.84279C12.6727 8.31052 11.7508 7.63518 12.0145 6.90107L12.5986 5.08017L11.0675 4.01839C10.7811 3.81955 10.6493 3.46687 10.7322 3.13046Z" fill="#1E4737"/>
</svg>
