<svg width="30" height="30" viewBox="0 0 30 30" fill="none" xmlns="http://www.w3.org/2000/svg">
<path d="M5.42875 13.7499H0C0.00198482 12.0929 0.661102 10.5044 1.83277 9.33271C3.00445 8.16103 4.59301 7.50191 6.25 7.49993H13.75V2.04491C13.7502 1.70082 13.8372 1.36235 14.0029 1.06079C14.1686 0.759233 14.4077 0.504333 14.6981 0.319665C14.9884 0.134997 15.3206 0.0265248 15.664 0.00428074C16.0073 -0.0179633 16.3508 0.0467392 16.6625 0.192404L20.6625 2.06741C20.8434 2.17951 20.9927 2.33594 21.0962 2.52188C21.1997 2.70782 21.254 2.9171 21.254 3.12991C21.254 3.34272 21.1997 3.55201 21.0962 3.73795C20.9927 3.92388 20.8434 4.08031 20.6625 4.19242L16.25 6.24992V7.49993H23.75C25.407 7.50191 26.9956 8.16103 28.1672 9.33271C29.3389 10.5044 29.998 12.0929 30 13.7499H24.5712C23.5946 13.7502 22.6565 13.3695 21.9563 12.6887L18.5363 8.96493C17.5804 8.04307 16.3022 7.53106 14.9742 7.53806C13.6463 7.54507 12.3736 8.07053 11.4275 9.00243L8.08 12.6512C7.37559 13.3525 6.42277 13.7474 5.42875 13.7499ZM15 23.75C14.6685 23.75 14.3505 23.8817 14.1161 24.1161C13.8817 24.3505 13.75 24.6685 13.75 25V30H16.25V25C16.25 24.6685 16.1183 24.3505 15.8839 24.1161C15.6495 23.8817 15.3315 23.75 15 23.75ZM24.5712 16.25H30V26.25C30 27.2446 29.6049 28.1984 28.9017 28.9016C28.1984 29.6049 27.2446 30 26.25 30H18.75V25C18.75 24.0054 18.3549 23.0516 17.6517 22.3483C16.9484 21.6451 15.9946 21.25 15 21.25C14.0054 21.25 13.0516 21.6451 12.3483 22.3483C11.6451 23.0516 11.25 24.0054 11.25 25V30H3.75C2.75544 30 1.80161 29.6049 1.09835 28.9016C0.395088 28.1984 0 27.2446 0 26.25L0 16.25H5.42875C6.25845 16.2502 7.07988 16.0851 7.84503 15.7643C8.61017 15.4434 9.30368 14.9732 9.885 14.3812L13.2325 10.7324C13.7052 10.289 14.3271 10.039 14.9752 10.0321C15.6233 10.0251 16.2504 10.2617 16.7325 10.6949L20.155 14.4187C20.7336 15.0006 21.4218 15.462 22.1798 15.7764C22.9379 16.0907 23.7507 16.2516 24.5712 16.25ZM7.5 26.25C7.5 25.9185 7.3683 25.6005 7.13388 25.3661C6.89946 25.1317 6.58152 25 6.25 25H5C4.66848 25 4.35054 25.1317 4.11612 25.3661C3.8817 25.6005 3.75 25.9185 3.75 26.25C3.75 26.5815 3.8817 26.8995 4.11612 27.1339C4.35054 27.3683 4.66848 27.5 5 27.5H6.25C6.58152 27.5 6.89946 27.3683 7.13388 27.1339C7.3683 26.8995 7.5 26.5815 7.5 26.25ZM7.5 21.25C7.5 20.9184 7.3683 20.6005 7.13388 20.3661C6.89946 20.1317 6.58152 20 6.25 20H5C4.66848 20 4.35054 20.1317 4.11612 20.3661C3.8817 20.6005 3.75 20.9184 3.75 21.25C3.75 21.5815 3.8817 21.8994 4.11612 22.1339C4.35054 22.3683 4.66848 22.5 5 22.5H6.25C6.58152 22.5 6.89946 22.3683 7.13388 22.1339C7.3683 21.8994 7.5 21.5815 7.5 21.25ZM17.5 16.25C17.5 15.7555 17.3534 15.2722 17.0787 14.861C16.804 14.4499 16.4135 14.1295 15.9567 13.9402C15.4999 13.751 14.9972 13.7015 14.5123 13.798C14.0273 13.8944 13.5819 14.1326 13.2322 14.4822C12.8826 14.8318 12.6445 15.2773 12.548 15.7622C12.4516 16.2472 12.5011 16.7499 12.6903 17.2067C12.8795 17.6635 13.2 18.0539 13.6111 18.3286C14.0222 18.6033 14.5055 18.75 15 18.75C15.663 18.75 16.2989 18.4866 16.7678 18.0177C17.2366 17.5489 17.5 16.913 17.5 16.25ZM26.25 26.25C26.25 25.9185 26.1183 25.6005 25.8839 25.3661C25.6495 25.1317 25.3315 25 25 25H23.75C23.4185 25 23.1005 25.1317 22.8661 25.3661C22.6317 25.6005 22.5 25.9185 22.5 26.25C22.5 26.5815 22.6317 26.8995 22.8661 27.1339C23.1005 27.3683 23.4185 27.5 23.75 27.5H25C25.3315 27.5 25.6495 27.3683 25.8839 27.1339C26.1183 26.8995 26.25 26.5815 26.25 26.25ZM25 20H23.75C23.4185 20 23.1005 20.1317 22.8661 20.3661C22.6317 20.6005 22.5 20.9184 22.5 21.25C22.5 21.5815 22.6317 21.8994 22.8661 22.1339C23.1005 22.3683 23.4185 22.5 23.75 22.5H25C25.3315 22.5 25.6495 22.3683 25.8839 22.1339C26.1183 21.8994 26.25 21.5815 26.25 21.25C26.25 20.9184 26.1183 20.6005 25.8839 20.3661C25.6495 20.1317 25.3315 20 25 20Z" fill="#1E4737"/>
</svg>
