<svg width="30" height="30" viewBox="0 0 30 30" fill="none" xmlns="http://www.w3.org/2000/svg">
<path d="M23 24.2281V30C23.8668 29.7028 24.6555 29.2143 25.3075 28.5705L28.5693 25.3063C29.2138 24.6551 29.7028 23.8667 30 23H24.2281C23.9024 23 23.59 23.1294 23.3597 23.3597C23.1294 23.59 23 23.9024 23 24.2281Z" fill="#1E4737"/>
<path d="M9.45398 16.8242C8.993 17.2851 8.62732 17.8322 8.37785 18.4344C8.12837 19.0366 7.99998 19.6821 8 20.3339V22H9.66612C10.3179 22 10.9634 21.8716 11.5656 21.6222C12.1678 21.3727 12.7149 21.007 13.1758 20.546L27.2292 6.49259C27.7227 5.99905 28 5.32966 28 4.6317C28 3.93373 27.7227 3.26434 27.2292 2.77081C26.7357 2.27727 26.0663 2 25.3683 2C24.6703 2 24.001 2.27727 23.5074 2.77081L9.45398 16.8242Z" fill="#1E4737"/>
<path d="M30 6.19C29.7871 7.11725 29.3196 7.96665 28.65 8.6425L14.4825 22.8037C13.7876 23.5023 12.961 24.0561 12.0506 24.4331C11.1402 24.8101 10.1641 25.0028 9.17875 25H7.5C6.83696 25 6.20107 24.7366 5.73223 24.2678C5.26339 23.7989 5 23.163 5 22.5V20.8212C4.99726 19.836 5.19009 18.86 5.5673 17.9498C5.94452 17.0395 6.49862 16.2133 7.1975 15.5188L21.3575 1.3575C22.0283 0.686924 22.8729 0.216799 23.7963 0C23.78 0 23.7663 0 23.75 0H6.25C4.59301 0.00198482 3.00445 0.661102 1.83277 1.83277C0.661102 3.00445 0.00198482 4.59301 0 6.25L0 23.75C0.00198482 25.407 0.661102 26.9956 1.83277 28.1672C3.00445 29.3389 4.59301 29.998 6.25 30H20V23.75C20 22.7554 20.3951 21.8016 21.0983 21.0983C21.8016 20.3951 22.7554 20 23.75 20H30V6.25C30 6.23 30 6.21125 30 6.19Z" fill="#1E4737"/>
</svg>
