<svg width="30" height="30" viewBox="0 0 30 30" fill="none" xmlns="http://www.w3.org/2000/svg">
<path d="M12.6182 22.5534L13.4032 26.0848C13.9119 28.3724 15.9406 30 18.2842 30H23.7503V22.4997C23.7503 21.8097 24.3102 21.2496 25.0002 21.2496C25.6902 21.2496 26.2502 21.8097 26.2502 22.4997V30C28.3213 30 30 28.3212 30 26.2498V22.4997C30 20.4284 28.3213 18.7495 26.2502 18.7495H25.6802L22.939 13.5631C22.7141 13.123 22.4041 12.7955 22.0866 12.6643C21.8216 12.5543 21.5529 12.4993 21.2866 12.4993C20.4341 12.4993 19.7317 13.0568 19.4967 13.9193C19.4692 14.0193 19.4342 14.2506 19.5054 14.6681L20.2304 18.7495H15.6693C13.6707 18.7495 12.1857 20.6009 12.6195 22.5522L12.6182 22.5534ZM11.8745 0C5.31603 0 0 5.31647 0 11.8755C0 17.8982 4.48731 22.861 10.2971 23.6347L10.1771 23.096C9.80459 21.4221 10.2071 19.6933 11.2808 18.3558C12.3532 17.0195 13.9532 16.2507 15.6681 16.2507H17.2468L17.0443 15.1056C16.9218 14.4044 16.9393 13.7818 17.0893 13.2443C17.6143 11.3117 19.3029 9.99917 21.2841 9.99917C21.8816 9.99917 22.4728 10.1192 23.0428 10.3554C23.2665 10.4479 23.4828 10.5679 23.689 10.7092C23.104 4.69895 18.0392 0 11.8745 0ZM17.3743 9.02413L12.7232 13.4818C11.5045 14.6769 9.5521 14.6731 8.3384 13.4731L5.99725 11.2505C5.50602 10.7654 5.50102 9.97542 5.9835 9.48165C6.46848 8.98787 7.26095 8.97912 7.75593 9.46414L10.5183 12.0855L15.6256 7.22905C16.1231 6.74778 16.9155 6.75903 17.398 7.25655C17.878 7.75157 17.868 8.54161 17.3755 9.02413H17.3743Z" fill="#1E4737"/>
</svg>
