<svg width="30" height="30" viewBox="0 0 30 30" fill="none" xmlns="http://www.w3.org/2000/svg">
<path d="M10.0001 15C5.86384 15 2.50004 11.6362 2.50004 7.5C2.50004 3.36375 5.86384 0 10.0001 0C14.1365 0 17.5003 3.36375 17.5003 7.5C17.5003 11.6362 14.1365 15 10.0001 15ZM18.4303 30C18.1665 30 17.9028 29.9162 17.6803 29.75C17.2553 29.4325 17.079 28.88 17.2378 28.3737L18.414 24.6038L15.4427 22.1863C15.0427 21.8475 14.8965 21.295 15.0777 20.8025C15.259 20.31 15.7265 19.9838 16.2502 19.9838H20.0015L21.3291 16.2588C21.5116 15.77 21.9791 15.445 22.5003 15.445C23.0216 15.445 23.4891 15.77 23.6716 16.2588L24.9991 19.9838H28.7504C29.2754 19.9838 29.7442 20.3125 29.9242 20.805C30.1042 21.2975 29.9567 21.8513 29.5554 22.19L26.5979 24.5988L27.8217 28.3237C27.9892 28.8275 27.8192 29.3825 27.3979 29.7062C26.9767 30.03 26.3966 30.0525 25.9529 29.7638L22.5103 27.5225L19.1253 29.7875C18.9153 29.9287 18.6728 30 18.4303 30ZM12.4214 30H1.25002C0.560008 30 0 29.44 0 28.75C0 22.5475 5.04757 17.5 11.2502 17.5H12.4214C12.8539 17.5 13.2552 17.725 13.484 18.0925C13.7115 18.46 13.7327 18.92 13.5402 19.3062C12.8502 20.6938 12.5002 22.19 12.5002 23.75C12.5002 25.31 12.8502 26.805 13.5402 28.1938C13.7327 28.5813 13.7115 29.0413 13.484 29.4088C13.2564 29.7763 12.8539 30 12.4214 30Z" fill="#1E4737"/>
</svg>
